<svg xmlns="http://www.w3.org/2000/svg" viewBox="0 0 714.97 840.82"><defs><style>.cls-1{fill:#e5e9fe;}.cls-2{fill:#29244a;}.cls-3{fill:#f24646;}.cls-4{fill:#f9bd48;}.cls-5{fill:#4eb751;}.cls-6{fill:#6457fe;}.cls-7{fill:#807d82;}.cls-8{fill:#171721;}.cls-9{fill:#ffac99;}.cls-10{fill:#ffbdab;}.cls-11{fill:#453db0;}.cls-12{fill:#757dfe;}.cls-13{fill:#3e379e;}</style></defs><g id="Layer_2" data-name="Layer 2"><g id="Layer_1-2" data-name="Layer 1"><rect class="cls-1" x="125.6" y="368.85" width="589.37" height="378.11" rx="24.46"/><path class="cls-2" d="M152,369.67H688.56A26.41,26.41,0,0,1,715,396.09v16.69a0,0,0,0,1,0,0H125.6a0,0,0,0,1,0,0V396.09A26.41,26.41,0,0,1,152,369.67Z"/><circle class="cls-3" cx="160.84" cy="392.46" r="7.18"/><circle class="cls-4" cx="180.91" cy="392.46" r="7.18"/><circle class="cls-5" cx="200.97" cy="392.46" r="7.18"/><path class="cls-6" d="M612.21,566.51l-20.49-3.23a92,92,0,0,0-4.46-10.79l12.19-16.76A14.06,14.06,0,0,0,598,517.52l-18.21-18.21a14.06,14.06,0,0,0-18.21-1.43l-16.77,12.2a91.13,91.13,0,0,0-10.78-4.46l-3.23-20.49a14.06,14.06,0,0,0-13.89-11.86H491.19a14,14,0,0,0-13.88,11.86l-3.24,20.49a91.83,91.83,0,0,0-10.78,4.46l-16.77-12.2a14.06,14.06,0,0,0-18.21,1.43l-18.2,18.21a14,14,0,0,0-1.43,18.21l12.19,16.76a90.24,90.24,0,0,0-4.45,10.79l-20.49,3.23a14.06,14.06,0,0,0-11.87,13.89v25.75A14.06,14.06,0,0,0,395.93,620l20.49,3.24a90.79,90.79,0,0,0,4.45,10.78l-12.19,16.76A14,14,0,0,0,410.11,669l18.2,18.21a14.06,14.06,0,0,0,18.21,1.43l16.77-12.19a93.52,93.52,0,0,0,10.78,4.45l3.24,20.49a14,14,0,0,0,13.88,11.86h25.75a14.06,14.06,0,0,0,13.89-11.86l3.23-20.49a92.8,92.8,0,0,0,10.78-4.45l16.77,12.19a14.06,14.06,0,0,0,18.21-1.43L598,669a14.06,14.06,0,0,0,1.42-18.21l-12.19-16.76a92.55,92.55,0,0,0,4.46-10.78L612.21,620a14.06,14.06,0,0,0,11.86-13.88V580.4A14.06,14.06,0,0,0,612.21,566.51ZM504.07,637.77a44.5,44.5,0,1,1,44.5-44.5A44.5,44.5,0,0,1,504.07,637.77Z"/><path class="cls-6" d="M397.73,486.17,386.5,484.4a49.27,49.27,0,0,0-2.44-5.91l6.68-9.18a7.71,7.71,0,0,0-.78-10l-10-10a7.71,7.71,0,0,0-10-.79l-9.19,6.68a52,52,0,0,0-5.91-2.44l-1.77-11.22a7.7,7.7,0,0,0-7.6-6.5H331.43a7.71,7.71,0,0,0-7.61,6.5l-1.77,11.22a52.79,52.79,0,0,0-5.91,2.44L307,448.57a7.72,7.72,0,0,0-10,.79l-10,10a7.71,7.71,0,0,0-.79,10l6.68,9.18a52.79,52.79,0,0,0-2.44,5.91l-11.22,1.77a7.7,7.7,0,0,0-6.5,7.61v14.11a7.69,7.69,0,0,0,6.5,7.6l11.22,1.78a51.87,51.87,0,0,0,2.44,5.9l-6.68,9.19a7.69,7.69,0,0,0,.79,10l10,10a7.71,7.71,0,0,0,10,.78l9.18-6.68a49.27,49.27,0,0,0,5.91,2.44l1.77,11.23a7.71,7.71,0,0,0,7.61,6.5h14.11a7.7,7.7,0,0,0,7.6-6.5l1.77-11.23a48.6,48.6,0,0,0,5.91-2.44l9.19,6.68a7.69,7.69,0,0,0,10-.78l10-10a7.69,7.69,0,0,0,.78-10l-6.68-9.19a48.46,48.46,0,0,0,2.44-5.9l11.23-1.78a7.7,7.7,0,0,0,6.5-7.6V493.78A7.71,7.71,0,0,0,397.73,486.17Zm-59.25,39a24.38,24.38,0,1,1,24.38-24.38A24.38,24.38,0,0,1,338.48,525.21Z"/><path class="cls-6" d="M330.51,622.18l-8.33-1.31a36.64,36.64,0,0,0-1.81-4.38l5-6.82a5.72,5.72,0,0,0-.59-7.4l-7.39-7.39a5.7,5.7,0,0,0-7.4-.58l-6.81,5a37.48,37.48,0,0,0-4.39-1.81l-1.31-8.33a5.72,5.72,0,0,0-5.64-4.82H281.33a5.72,5.72,0,0,0-5.64,4.82l-1.31,8.33a36.64,36.64,0,0,0-4.38,1.81l-6.81-5a5.7,5.7,0,0,0-7.4.58l-7.4,7.39a5.7,5.7,0,0,0-.58,7.4l4.95,6.82a38.37,38.37,0,0,0-1.81,4.38l-8.32,1.31a5.71,5.71,0,0,0-4.82,5.64v10.47a5.71,5.71,0,0,0,4.82,5.64l8.32,1.31a38.37,38.37,0,0,0,1.81,4.38l-4.95,6.82a5.69,5.69,0,0,0,.58,7.39l7.4,7.4a5.7,5.7,0,0,0,7.4.58l6.81-4.95a38.37,38.37,0,0,0,4.38,1.81l1.31,8.32a5.71,5.71,0,0,0,5.64,4.82H291.8a5.71,5.71,0,0,0,5.64-4.82l1.31-8.32a39.29,39.29,0,0,0,4.39-1.81l6.81,4.95a5.7,5.7,0,0,0,7.4-.58l7.39-7.4a5.7,5.7,0,0,0,.59-7.39l-5-6.82a36.64,36.64,0,0,0,1.81-4.38l8.33-1.31a5.72,5.72,0,0,0,4.82-5.64V627.82A5.72,5.72,0,0,0,330.51,622.18Zm-43.94,29a18.09,18.09,0,1,1,18.08-18.09A18.08,18.08,0,0,1,286.57,651.14Z"/><path class="cls-7" d="M83.25,317.52l-2.64,1.67c0-.78,0-1.58-.07-2.38a29.67,29.67,0,0,0-16.37-24.5l.47-.29a29.64,29.64,0,0,1,18.61,25.5Z"/><path class="cls-8" d="M439.78,92.34l-34.9,22.06L117.48,295.91,83.25,317.52A29.64,29.64,0,0,0,64.64,292L100,269.69,387.85,87.89l34.58-21.83c0,.44,0,.9.06,1.35a29.63,29.63,0,0,0,16.36,24.5C439.16,92.06,439.47,92.21,439.78,92.34Z"/><path d="M324.67,119.36s13.15-10.73,19.53,3.63c0,0,10.43,28.75.57,43.15,0,0-7.14-15.53-11-17.8S324.67,119.36,324.67,119.36Z"/><path class="cls-9" d="M339,155.48s6,9.58,14.28,26.16c0,0,4.15,19-12.11,20.46s-18.2-7.53-18.2-7.53,5.8-13.7-1.91-20.5C321.08,174.07,329.61,154.51,339,155.48Z"/><path class="cls-10" d="M329.48,134.3A97.5,97.5,0,0,0,326.63,123s-40.35,2-58.94,19.34c0,0,10,62.42,43.38,48.06,13-5.58,18.23-17,19.78-28.93,2.62-.28,5.5-1.86,8.17-6C346.39,144.15,340.35,131.49,329.48,134.3Z"/><path d="M301.93,126.63s17.79,34.63,20.85,34.18-4.27-22.9,7.62-26.71c10.89-3.5-.14-12.06-.14-12.06S307.05,120.23,301.93,126.63Z"/><path class="cls-6" d="M346.38,123.36h0L266,148.11A43.49,43.49,0,0,1,259.07,126c0-.48,0-1,0-1.46q0-1.09.06-2.19a43.65,43.65,0,0,1,43.6-41.48,43.52,43.52,0,0,1,21.34,5.57,41.94,41.94,0,0,1,6.75,4.69,43.55,43.55,0,0,1,14.91,25.69A46,46,0,0,1,346.38,123.36Z"/><polygon class="cls-11" points="354.4 120.89 346.38 123.36 346.38 123.37 265.98 148.11 252.93 152.12 251.02 145.9 262.82 142.27 345.71 116.77 352.49 114.68 354.4 120.89"/><path class="cls-11" d="M292.62,133.09s-9.76,7.36-17.15,5.28c0,0-9.18-23.5-5.86-42.36a43.58,43.58,0,0,1,33.11-15.19,41.44,41.44,0,0,1,6.13.44C299.72,86.66,281.88,101.75,292.62,133.09Z"/><path class="cls-12" d="M330.8,91.08c-8.26,2-19.84,8.13-25.83,26.16,0,0,.42-20.78,19.08-30.85A41.94,41.94,0,0,1,330.8,91.08Z"/><path class="cls-12" d="M264.21,128a20.94,20.94,0,0,0-5.14-2c0-.48,0-1,0-1.46q0-1.09.06-2.19A39.51,39.51,0,0,1,264.21,128Z"/><polygon class="cls-8" points="390.72 396.06 311.24 764.17 265.3 755.53 325.11 383.71 390.72 396.06"/><polygon class="cls-8" points="440.65 365.18 427.05 714.78 379.46 714.24 373.89 364.41 440.65 365.18"/><path class="cls-6" d="M425.1,392.25c-11.35,8.24-26.67,15.24-42.22,20.42l-.52.18h0a206.64,206.64,0,0,1-35.2,8.42c-13.6,1.9-24.39,1.46-28.56-1.92-16.22-13.16-31.15-170.26-8.94-208.79a59.15,59.15,0,0,1,12.29-15.1l1.07-.9c3.45,3.86,9.81,5.27,16.21,3.49.37-.11.75-.21,1.12-.35.55-.18,1.11-.39,1.66-.62,7.28-3.11,11.76-9.52,11.32-15.45a75.08,75.08,0,0,1,7.53-.72,79,79,0,0,1,13.14.5,6.22,6.22,0,0,1,5,3.83c8.72,21.17,57.17,139.79,64.19,176.07C445.34,372.59,437.64,383.17,425.1,392.25Z"/><path class="cls-6" d="M311.33,207.78S270.18,241,265.2,270.42c0,0,16.55,70,26.07,83.19l17.91-32Z"/><path class="cls-6" d="M367,180.84s64.61,3.2,77.53,20.66c0,0,9.05,50.12-4.08,79.2,0,0-19-15.95-42.62-12.55Z"/><path class="cls-11" d="M425.1,392.25S403.44,254.32,367,247.07c0,0-28.29-.46-36,16.77S325.29,354,347.13,421.28c-13.6,1.9-24.39,1.46-28.56-1.92-16.22-13.16-31.15-170.26-8.94-208.79a59.15,59.15,0,0,1,12.29-15.1s-4.13,37.08,6.52,43.43,38.77-9.06,38.54-23.8-6.15-34.18-6.15-34.18a79,79,0,0,1,13.14.5,6.22,6.22,0,0,1,5,3.83c8.72,21.17,57.17,139.79,64.19,176.07C445.34,372.59,437.64,383.17,425.1,392.25Z"/><path class="cls-11" d="M382.9,412.74l-.54.11h0l-.58.11L339.2,198.06c.37-.11.75-.21,1.12-.35l42.56,215Z"/><path class="cls-10" d="M444.51,201.5s35.34,12.08,62.78,56a9.72,9.72,0,0,1,.61,9.44,8.21,8.21,0,0,0-1,5.69c1.21,4.23-12.69,66.49-33.85,96.42s-15.42,61.36-38.69,66.8c0,0-19.95-14.21-12.39-37.18,0,0,32.64-31.13,34.45-52.59s-18.94-66.8,9-79.5c0,0-11.43,3.15-20.82,1.42C444.6,268,450.63,244.12,444.51,201.5Z"/><path class="cls-10" d="M287.25,345.88c-8.56,18.64-22.1,33.58-43.29,29.5-50.18-9.68-82.21-84-82.21-84-20.1-2.58-19.65-10.66-19.65-10.66l25.09-16.24c-4.84-19.5,11-21.61,11-21.61-2.87-4.09.46-6.35.46-6.35-9.07-11.19,3.47-18.59,3.47-18.59,1.82,6.79,13,12.39,13,12.39-3.46,6.5.92,16.78.92,16.78-5.89,3.93-10.73,19.79-11.34,23.35s-2.41,21.22,30.83,26.37c31.18,4.82,35.49,19.82,35.91,21.69-3.82-20.72,13.74-48.06,13.74-48.06S277.73,323.44,287.25,345.88Z"/><rect class="cls-10" x="126.48" y="241.56" width="9.33" height="26.27" rx="3.49" transform="translate(-126.15 128.73) rotate(-36.67)"/><rect class="cls-10" x="132.32" y="231.29" width="11.35" height="31.99" rx="4.25" transform="translate(-120.37 131.35) rotate(-36.67)"/><rect class="cls-10" x="150.01" y="216.98" width="11.35" height="31.99" rx="4.25" transform="translate(-108.32 139.08) rotate(-36.67)"/><rect class="cls-10" x="140.42" y="222.97" width="12" height="33.81" rx="4.49" transform="translate(-114.28 134.92) rotate(-36.67)"/><path class="cls-8" d="M114.76,295.2a68.58,68.58,0,0,0-6.28-12.68A67.24,67.24,0,0,0,97.27,269,68.08,68.08,0,0,0,0,273.79l22.77,36a29.6,29.6,0,0,1,39.15-18.51q1.15.45,2.25,1a29.67,29.67,0,0,1,16.37,24.5c0,.8.07,1.6.07,2.38a29.62,29.62,0,0,1-33.62,29l22.76,36a68.08,68.08,0,0,0,45-89Z"/><path class="cls-8" d="M480.25,74.39A29.6,29.6,0,0,1,441.1,92.9c-.45-.17-.88-.36-1.32-.56s-.62-.28-.93-.43a29.63,29.63,0,0,1-16.36-24.5c0-.45-.05-.91-.06-1.35s0-.69,0-1A29.62,29.62,0,0,1,456,36L433.27,0a68.09,68.09,0,0,0-45.42,87.89c.13.38.27.75.41,1.13a68.45,68.45,0,0,0,16.62,25.38c.28.29.58.56.87.83a68.08,68.08,0,0,0,97.27-4.8Z"/><path class="cls-11" d="M269.05,681.87s38.09-6.35,63.17,9.37l-27.8,134.81-101,3.32s-4.53-6.35,7.86-10,46.85-35.07,46.85-35.07Z"/><path class="cls-13" d="M203.46,829.37s.53,7.56,10,7.33,46.7-5.67,49.87-1.13,37.86-.91,37.86-.91l3.18-8.61Z"/><path class="cls-11" d="M372.65,678.83s36.58-12.37,63.86-.87l-5.86,137.52-99.12,19.45s-5.49-5.54,6.16-11.1,40.63-42.12,40.63-42.12Z"/><path class="cls-13" d="M331.53,834.93s1.73,7.37,11.09,5.63,45.19-13.08,49.05-9.11,37.23-7,37.23-7l1.75-9Z"/><path class="cls-8" d="M293.81,170.93a8,8,0,0,1-5.52-2c-6.11-5.43-3.23-20.21-3.1-20.84a1.17,1.17,0,0,1,1.38-.92,1.19,1.19,0,0,1,.92,1.38c0,.14-2.76,14.09,2.36,18.63,1.78,1.59,4.46,1.8,8,.66a1.17,1.17,0,0,1,.73,2.22A15.15,15.15,0,0,1,293.81,170.93Z"/><path class="cls-8" d="M298.18,180a1.17,1.17,0,0,1-.52-2.22c2.12-1.05,7.71-4.56,8.08-8.17a1.19,1.19,0,0,1,1.29-1,1.17,1.17,0,0,1,1,1.29c-.59,5.63-9,9.85-9.37,10A1.2,1.2,0,0,1,298.18,180Z"/><path class="cls-8" d="M312,167.64a5.06,5.06,0,0,1-3-.88,4.94,4.94,0,0,1-2-3.17,1.17,1.17,0,0,1,2.32-.33,2.7,2.7,0,0,0,1,1.6,3.61,3.61,0,0,0,2.81.3,1.17,1.17,0,0,1,.48,2.29A8.58,8.58,0,0,1,312,167.64Z"/></g></g></svg>